<svg xmlns="http://www.w3.org/2000/svg" width="1030" height="424" viewBox="0 0 1030 424" font-family="ui-sans-serif, system-ui, sans-serif">
<rect width="1030" height="424" fill="#ffffff"/>
<text x="10" y="22" font-size="15" font-weight="600" fill="#111">composed_sconv24000_token_square_s0</text>
<text x="10" y="42" font-size="11.5" fill="#666">EVERY DRAWING IS MACHINE-GENERATED — sampled from this checkpoint, nothing is a corpus drawing. token alphabet · D4 orbits, n ∈ {2, 4}, REPEATX form · 826,752 params</text>
<text x="10" y="57" font-size="11.5" fill="#666">· seed 0 · top-k 40 · 12/12 valid · 112 bytes/drawing mean · red border = VM fault</text>
<g transform="translate(10,74)"><svg width="160" height="160" viewBox="0 0 256 256"><rect width="256" height="256" fill="white"/>
<g fill="none" stroke="black" stroke-linecap="round" stroke-linejoin="round">
<polyline points="154.00,187.00 168.00,169.00 210.00,158.00 238.00,179.00 242.00,201.00 219.00,208.00 220.00,225.00 237.00,216.00 225.00,204.00" stroke-width="1"/>
<polyline points="218.00,206.00 154.00,197.00 150.00,217.00 162.00,214.00 156.00,199.00" stroke-width="1"/>
<polyline points="152.00,198.00 132.00,200.00 137.00,186.00" stroke-width="1"/>
<polyline points="101.00,187.00 87.00,169.00 45.00,158.00 17.00,179.00 13.00,201.00 36.00,208.00 35.00,225.00 18.00,216.00 30.00,204.00" stroke-width="1"/>
<polyline points="37.00,206.00 101.00,197.00 105.00,217.00 93.00,214.00 99.00,199.00" stroke-width="1"/>
<polyline points="103.00,198.00 123.00,200.00 118.00,186.00" stroke-width="1"/>
<polyline points="36.00,191.00 49.00,193.00 58.00,172.00 89.00,168.00 102.00,189.00 115.00,186.00 126.00,201.00 108.00,207.00 37.00,212.00 17.00,208.00 19.00,193.00" stroke-width="1"/>
<polyline points="34.00,215.00 53.00,225.00 66.00,212.00" stroke-width="1"/>
<polyline points="81.00,216.00 99.00,221.00 110.00,207.00" stroke-width="1"/>
</g></svg><rect width="160" height="160" fill="none" stroke="#e6e6e6"/></g>
<g transform="translate(180,74)"><svg width="160" height="160" viewBox="0 0 256 256"><rect width="256" height="256" fill="white"/>
<g fill="none" stroke="black" stroke-linecap="round" stroke-linejoin="round">
<polyline points="146.00,184.00 161.00,163.00 205.00,158.00 221.00,176.00 252.00,177.00 249.00,191.00 230.00,201.00 139.00,209.00 151.00,184.00" stroke-width="1"/>
<polyline points="158.00,211.00 168.00,208.00" stroke-width="1"/>
<polyline points="203.00,207.00 204.00,219.00 215.00,207.00 201.00,199.00 200.00,216.00" stroke-width="1"/>
<polyline points="184.00,109.00 163.00,94.00 158.00,50.00 176.00,34.00 177.00,3.00 191.00,6.00 201.00,25.00 209.00,116.00 184.00,104.00" stroke-width="1"/>
<polyline points="211.00,97.00 208.00,87.00" stroke-width="1"/>
<polyline points="207.00,52.00 219.00,51.00 207.00,40.00 199.00,54.00 216.00,55.00" stroke-width="1"/>
<polyline points="109.00,71.00 94.00,92.00 50.00,97.00 34.00,79.00 3.00,78.00 6.00,64.00 25.00,54.00 116.00,46.00 104.00,71.00" stroke-width="1"/>
<polyline points="97.00,44.00 87.00,47.00" stroke-width="1"/>
<polyline points="52.00,48.00 51.00,36.00 40.00,48.00 54.00,56.00 55.00,39.00" stroke-width="1"/>
<polyline points="71.00,146.00 92.00,161.00 97.00,205.00 79.00,221.00 78.00,252.00 64.00,249.00 54.00,230.00 46.00,139.00 71.00,151.00" stroke-width="1"/>
<polyline points="44.00,158.00 47.00,168.00" stroke-width="1"/>
<polyline points="48.00,203.00 36.00,204.00 48.00,215.00 56.00,201.00 39.00,200.00" stroke-width="1"/>
</g></svg><rect width="160" height="160" fill="none" stroke="#e6e6e6"/></g>
<g transform="translate(350,74)"><svg width="160" height="160" viewBox="0 0 256 256"><rect width="256" height="256" fill="white"/>
<g fill="none" stroke="black" stroke-linecap="round" stroke-linejoin="round">
<polyline points="38.00,191.00 44.00,180.00 85.00,181.00 93.00,194.00 115.00,164.00 94.00,155.00 16.00,163.00 8.00,180.00 31.00,177.00 28.00,190.00" stroke-width="1"/>
<polyline points="98.00,172.00 103.00,184.00" stroke-width="1"/>
<polyline points="104.00,181.00 104.00,183.00" stroke-width="1"/>
<polyline points="116.00,165.00 111.00,161.00" stroke-width="1"/>
<polyline points="217.00,64.00 211.00,75.00 170.00,74.00 162.00,61.00 140.00,91.00 161.00,100.00 239.00,92.00 247.00,75.00 224.00,78.00 227.00,65.00" stroke-width="1"/>
<polyline points="157.00,83.00 152.00,71.00" stroke-width="1"/>
<polyline points="151.00,74.00 151.00,72.00" stroke-width="1"/>
<polyline points="139.00,90.00 144.00,94.00" stroke-width="1"/>
<polyline points="35.00,37.00 14.00,43.00 24.00,63.00 44.00,63.00 47.00,38.00 31.00,38.00" stroke-width="1"/>
<polyline points="45.00,44.00 124.00,47.00 119.00,72.00 101.00,70.00 106.00,85.00 94.00,74.00 65.00,77.00 51.00,63.00" stroke-width="1"/>
</g></svg><rect width="160" height="160" fill="none" stroke="#e6e6e6"/></g>
<g transform="translate(520,74)"><svg width="160" height="160" viewBox="0 0 256 256"><rect width="256" height="256" fill="white"/>
<g fill="none" stroke="black" stroke-linecap="round" stroke-linejoin="round">
<polyline points="26.00,179.00 39.00,188.00" stroke-width="1"/>
<polyline points="41.00,186.00 55.00,176.00 63.00,193.00" stroke-width="1"/>
<polyline points="25.00,191.00 12.00,193.00" stroke-width="1"/>
<polyline points="37.00,194.00 13.00,197.00" stroke-width="1"/>
<polyline points="30.00,196.00 2.00,193.00" stroke-width="1"/>
<polyline points="52.00,193.00 68.00,208.00 76.00,195.00 73.00,181.00 87.00,180.00 87.00,198.00 111.00,196.00 85.00,181.00" stroke-width="1"/>
<polyline points="95.00,199.00 114.00,198.00" stroke-width="1"/>
<polyline points="229.00,179.00 216.00,188.00" stroke-width="1"/>
<polyline points="214.00,186.00 200.00,176.00 192.00,193.00" stroke-width="1"/>
<polyline points="230.00,191.00 243.00,193.00" stroke-width="1"/>
<polyline points="218.00,194.00 242.00,197.00" stroke-width="1"/>
<polyline points="225.00,196.00 253.00,193.00" stroke-width="1"/>
<polyline points="203.00,193.00 187.00,208.00 179.00,195.00 182.00,181.00 168.00,180.00 168.00,198.00 144.00,196.00 170.00,181.00" stroke-width="1"/>
<polyline points="160.00,199.00 141.00,198.00" stroke-width="1"/>
</g></svg><rect width="160" height="160" fill="none" stroke="#e6e6e6"/></g>
<g transform="translate(690,74)"><svg width="160" height="160" viewBox="0 0 256 256"><rect width="256" height="256" fill="white"/>
<g fill="none" stroke="black" stroke-linecap="round" stroke-linejoin="round">
<polyline points="164.00,50.00 140.00,60.00 149.00,79.00 178.00,78.00 186.00,66.00 178.00,66.00 190.00,69.00 204.00,46.00 200.00,61.00 181.00,58.00" stroke-width="1"/>
<polyline points="160.00,60.00 157.00,69.00 145.00,58.00 157.00,61.00" stroke-width="1"/>
<polyline points="165.00,68.00 166.00,65.00" stroke-width="1"/>
<polyline points="185.00,64.00 183.00,61.00" stroke-width="1"/>
<polyline points="165.00,75.00 157.00,78.00" stroke-width="1"/>
<polyline points="168.00,79.00 177.00,85.00 178.00,68.00" stroke-width="1"/>
<polyline points="161.00,81.00 151.00,105.00" stroke-width="1"/>
<polyline points="162.00,111.00 174.00,119.00" stroke-width="1"/>
<polyline points="188.00,92.00 199.00,114.00" stroke-width="1"/>
<polyline points="187.00,84.00 203.00,105.00" stroke-width="1"/>
<polyline points="198.00,62.00 239.00,56.00 239.00,80.00 214.00,99.00" stroke-width="1"/>
<polyline points="236.00,61.00 253.00,60.00 251.00,82.00 234.00,89.00" stroke-width="1"/>
<polyline points="50.00,164.00 60.00,140.00 79.00,149.00 78.00,178.00 66.00,186.00 66.00,178.00 69.00,190.00 46.00,204.00 61.00,200.00 58.00,181.00" stroke-width="1"/>
<polyline points="60.00,160.00 69.00,157.00 58.00,145.00 61.00,157.00" stroke-width="1"/>
<polyline points="68.00,165.00 65.00,166.00" stroke-width="1"/>
<polyline points="64.00,185.00 61.00,183.00" stroke-width="1"/>
<polyline points="75.00,165.00 78.00,157.00" stroke-width="1"/>
<polyline points="79.00,168.00 85.00,177.00 68.00,178.00" stroke-width="1"/>
<polyline points="81.00,161.00 105.00,151.00" stroke-width="1"/>
<polyline points="111.00,162.00 119.00,174.00" stroke-width="1"/>
<polyline points="92.00,188.00 114.00,199.00" stroke-width="1"/>
<polyline points="84.00,187.00 105.00,203.00" stroke-width="1"/>
<polyline points="62.00,198.00 56.00,239.00 80.00,239.00 99.00,214.00" stroke-width="1"/>
<polyline points="61.00,236.00 60.00,253.00 82.00,251.00 89.00,234.00" stroke-width="1"/>
</g></svg><rect width="160" height="160" fill="none" stroke="#e6e6e6"/></g>
<g transform="translate(860,74)"><svg width="160" height="160" viewBox="0 0 256 256"><rect width="256" height="256" fill="white"/>
<g fill="none" stroke="black" stroke-linecap="round" stroke-linejoin="round">
<polyline points="158.00,55.00 141.00,65.00 141.00,91.00 159.00,117.00 182.00,127.00" stroke-width="1"/>
<polyline points="216.00,58.00 235.00,40.00 247.00,58.00 229.00,78.00 211.00,72.00" stroke-width="1"/>
<polyline points="164.00,50.00 158.00,26.00 174.00,44.00" stroke-width="1"/>
<polyline points="224.00,49.00 240.00,22.00 236.00,50.00" stroke-width="1"/>
<polyline points="172.00,80.00 184.00,80.00 176.00,93.00 172.00,79.00 188.00,80.00 193.00,90.00 184.00,80.00 184.00,95.00 195.00,89.00 186.00,81.00 180.00,96.00 193.00,87.00 194.00,91.00 181.00,90.00 183.00,103.00 200.00,93.00 178.00,101.00" stroke-width="1"/>
<polyline points="55.00,97.00 65.00,114.00 91.00,114.00 117.00,96.00 127.00,73.00" stroke-width="1"/>
<polyline points="58.00,39.00 40.00,20.00 58.00,8.00 78.00,26.00 72.00,44.00" stroke-width="1"/>
<polyline points="50.00,91.00 26.00,97.00 44.00,81.00" stroke-width="1"/>
<polyline points="49.00,31.00 22.00,15.00 50.00,19.00" stroke-width="1"/>
<polyline points="80.00,83.00 80.00,71.00 93.00,79.00 79.00,83.00 80.00,67.00 90.00,62.00 80.00,71.00 95.00,71.00 89.00,60.00 81.00,69.00 96.00,75.00 87.00,62.00 91.00,61.00 90.00,74.00 103.00,72.00 93.00,55.00 101.00,77.00" stroke-width="1"/>
</g></svg><rect width="160" height="160" fill="none" stroke="#e6e6e6"/></g>
<g transform="translate(10,244)"><svg width="160" height="160" viewBox="0 0 256 256"><rect width="256" height="256" fill="white"/>
<g fill="none" stroke="black" stroke-linecap="round" stroke-linejoin="round">
<polyline points="10.00,60.00 1.00,72.00 15.00,80.00 26.00,72.00 23.00,55.00" stroke-width="1"/>
<polyline points="15.00,60.00 29.00,45.00 24.00,64.00" stroke-width="1"/>
<polyline points="14.00,72.00 15.00,78.00" stroke-width="1"/>
<polyline points="4.00,74.00 19.00,73.00" stroke-width="1"/>
<polyline points="16.00,81.00 13.00,91.00 28.00,86.00" stroke-width="1"/>
<polyline points="25.00,77.00 24.00,84.00" stroke-width="1"/>
<polyline points="20.00,87.00 23.00,90.00" stroke-width="1"/>
<polyline points="22.00,74.00 27.00,74.00" stroke-width="1"/>
<polyline points="11.00,58.00 18.00,66.00" stroke-width="1"/>
<polyline points="29.00,63.00 33.00,68.00" stroke-width="1"/>
<polyline points="24.00,67.00 23.00,64.00" stroke-width="1"/>
<polyline points="17.00,71.00 19.00,72.00" stroke-width="1"/>
<polyline points="22.00,72.00 28.00,75.00" stroke-width="1"/>
<polyline points="32.00,68.00 35.00,65.00" stroke-width="1"/>
<polyline points="28.00,74.00 35.00,70.00" stroke-width="1"/>
<polyline points="34.00,73.00 30.00,81.00" stroke-width="1"/>
<polyline points="38.00,92.00 37.00,94.00" stroke-width="1"/>
<polyline points="44.00,87.00 44.00,91.00" stroke-width="1"/>
<polyline points="52.00,87.00 115.00,81.00 113.00,110.00 99.00,110.00 91.00,100.00 65.00,114.00 53.00,95.00 43.00,115.00 36.00,82.00" stroke-width="1"/>
<polyline points="150.00,178.00 167.00,164.00 203.00,163.00 247.00,192.00 230.00,200.00 145.00,201.00" stroke-width="1"/>
<polyline points="161.00,199.00 143.00,210.00 166.00,220.00 180.00,213.00 177.00,194.00" stroke-width="1"/>
<polyline points="217.00,208.00 203.00,224.00 219.00,228.00 222.00,206.00" stroke-width="1"/>
<polyline points="151.00,51.00 136.00,78.00 157.00,83.00 169.00,63.00 150.00,49.00" stroke-width="1"/>
<polyline points="147.00,70.00 148.00,69.00" stroke-width="1"/>
<polyline points="144.00,64.00 143.00,68.00" stroke-width="1"/>
<polyline points="147.00,60.00 149.00,63.00" stroke-width="1"/>
<polyline points="160.00,64.00 179.00,58.00 175.00,76.00 182.00,60.00 188.00,75.00 172.00,69.00" stroke-width="1"/>
<polyline points="154.00,79.00 152.00,101.00 181.00,103.00 176.00,125.00 190.00,103.00 215.00,126.00 227.00,115.00 237.00,127.00 247.00,110.00" stroke-width="1"/>
<polyline points="51.00,151.00 78.00,136.00 83.00,157.00 63.00,169.00 49.00,150.00" stroke-width="1"/>
<polyline points="70.00,147.00 69.00,148.00" stroke-width="1"/>
<polyline points="64.00,144.00 68.00,143.00" stroke-width="1"/>
<polyline points="60.00,147.00 63.00,149.00" stroke-width="1"/>
<polyline points="64.00,160.00 58.00,179.00 76.00,175.00 60.00,182.00 75.00,188.00 69.00,172.00" stroke-width="1"/>
<polyline points="79.00,154.00 101.00,152.00 103.00,181.00 125.00,176.00 103.00,190.00 126.00,215.00 115.00,227.00 127.00,237.00 110.00,247.00" stroke-width="1"/>
</g></svg><rect width="160" height="160" fill="none" stroke="#e6e6e6"/></g>
<g transform="translate(180,244)"><svg width="160" height="160" viewBox="0 0 256 256"><rect width="256" height="256" fill="white"/>
<g fill="none" stroke="black" stroke-linecap="round" stroke-linejoin="round">
<polyline points="15.00,64.00 20.00,78.00 36.00,73.00 39.00,64.00 18.00,59.00 17.00,68.00" stroke-width="1"/>
<polyline points="35.00,80.00 79.00,82.00" stroke-width="1"/>
<polyline points="82.00,75.00 94.00,65.00 103.00,80.00 78.00,80.00" stroke-width="1"/>
<polyline points="22.00,74.00 8.00,73.00 7.00,51.00 59.00,30.00 117.00,49.00 104.00,78.00" stroke-width="1"/>
<polyline points="240.00,64.00 235.00,78.00 219.00,73.00 216.00,64.00 237.00,59.00 238.00,68.00" stroke-width="1"/>
<polyline points="220.00,80.00 176.00,82.00" stroke-width="1"/>
<polyline points="173.00,75.00 161.00,65.00 152.00,80.00 177.00,80.00" stroke-width="1"/>
<polyline points="233.00,74.00 247.00,73.00 248.00,51.00 196.00,30.00 138.00,49.00 151.00,78.00" stroke-width="1"/>
</g></svg><rect width="160" height="160" fill="none" stroke="#e6e6e6"/></g>
<g transform="translate(350,244)"><svg width="160" height="160" viewBox="0 0 256 256"><rect width="256" height="256" fill="white"/>
<g fill="none" stroke="black" stroke-linecap="round" stroke-linejoin="round">
<polyline points="39.00,48.00 16.00,51.00 2.00,35.00 5.00,61.00 46.00,72.00 64.00,60.00 69.00,77.00" stroke-width="1"/>
<polyline points="42.00,60.00 57.00,62.00" stroke-width="1"/>
<polyline points="17.00,65.00 14.00,67.00" stroke-width="1"/>
<polyline points="11.00,49.00 13.00,50.00" stroke-width="1"/>
<polyline points="7.00,48.00 12.00,46.00" stroke-width="1"/>
<polyline points="49.00,54.00 51.00,58.00" stroke-width="1"/>
<polyline points="52.00,70.00 55.00,67.00" stroke-width="1"/>
<polyline points="27.00,48.00 31.00,44.00" stroke-width="1"/>
<polyline points="32.00,53.00 35.00,50.00" stroke-width="1"/>
<polyline points="32.00,62.00 40.00,58.00" stroke-width="1"/>
<polyline points="39.00,57.00 41.00,58.00" stroke-width="1"/>
<polyline points="51.00,56.00 87.00,43.00 113.00,64.00 103.00,92.00 73.00,95.00 37.00,80.00" stroke-width="1"/>
<polyline points="53.00,84.00 54.00,105.00" stroke-width="1"/>
<polyline points="34.00,204.00 28.00,239.00" stroke-width="1"/>
<polyline points="44.00,189.00 61.00,242.00" stroke-width="1"/>
<polyline points="37.00,198.00 24.00,189.00 16.00,156.00 32.00,134.00 47.00,136.00 47.00,153.00 61.00,138.00 76.00,145.00 67.00,166.00 85.00,168.00 84.00,187.00 65.00,203.00 45.00,201.00" stroke-width="1"/>
<polyline points="204.00,221.00 239.00,227.00" stroke-width="1"/>
<polyline points="189.00,211.00 242.00,194.00" stroke-width="1"/>
<polyline points="198.00,218.00 189.00,231.00 156.00,239.00 134.00,223.00 136.00,208.00 153.00,208.00 138.00,194.00 145.00,179.00 166.00,188.00 168.00,170.00 187.00,171.00 203.00,190.00 201.00,210.00" stroke-width="1"/>
</g></svg><rect width="160" height="160" fill="none" stroke="#e6e6e6"/></g>
<g transform="translate(520,244)"><svg width="160" height="160" viewBox="0 0 256 256"><rect width="256" height="256" fill="white"/>
<g fill="none" stroke="black" stroke-linecap="round" stroke-linejoin="round">
<polyline points="149.00,178.00 141.00,183.00 150.00,189.00 157.00,178.00" stroke-width="1"/>
<polyline points="225.00,180.00 210.00,186.00 221.00,188.00 221.00,176.00" stroke-width="1"/>
<polyline points="136.00,182.00 140.00,163.00 158.00,159.00 168.00,133.00 200.00,130.00 209.00,158.00 238.00,156.00 246.00,175.00 241.00,183.00 222.00,180.00" stroke-width="1"/>
<polyline points="161.00,183.00 216.00,184.00" stroke-width="1"/>
<polyline points="166.00,150.00 194.00,147.00 198.00,130.00" stroke-width="1"/>
<polyline points="194.00,140.00 194.00,147.00" stroke-width="1"/>
<polyline points="201.00,146.00 200.00,162.00" stroke-width="1"/>
<polyline points="178.00,149.00 183.00,141.00 189.00,150.00 178.00,157.00" stroke-width="1"/>
<polyline points="180.00,225.00 186.00,210.00 188.00,221.00 176.00,221.00" stroke-width="1"/>
<polyline points="182.00,136.00 163.00,140.00 159.00,158.00 133.00,168.00 130.00,200.00 158.00,209.00 156.00,238.00 175.00,246.00 183.00,241.00 180.00,222.00" stroke-width="1"/>
<polyline points="183.00,161.00 184.00,216.00" stroke-width="1"/>
<polyline points="150.00,166.00 147.00,194.00 130.00,198.00" stroke-width="1"/>
<polyline points="140.00,194.00 147.00,194.00" stroke-width="1"/>
<polyline points="146.00,201.00 162.00,200.00" stroke-width="1"/>
<polyline points="21.00,174.00 32.00,152.00 75.00,147.00 88.00,174.00 120.00,175.00 121.00,183.00 88.00,181.00" stroke-width="1"/>
<polyline points="86.00,192.00 77.00,181.00 70.00,201.00" stroke-width="1"/>
<polyline points="73.00,200.00 68.00,184.00 56.00,197.00 50.00,187.00 39.00,199.00 34.00,173.00 17.00,198.00" stroke-width="1"/>
</g></svg><rect width="160" height="160" fill="none" stroke="#e6e6e6"/></g>
<g transform="translate(690,244)"><svg width="160" height="160" viewBox="0 0 256 256"><rect width="256" height="256" fill="white"/>
<g fill="none" stroke="black" stroke-linecap="round" stroke-linejoin="round">
<polyline points="161.00,61.00 142.00,72.00 138.00,92.00 158.00,93.00" stroke-width="1"/>
<polyline points="167.00,60.00 192.00,49.00 245.00,65.00 247.00,85.00 160.00,89.00" stroke-width="1"/>
<polyline points="178.00,77.00 164.00,94.00 180.00,92.00 175.00,74.00" stroke-width="1"/>
<polyline points="207.00,79.00 201.00,93.00 217.00,93.00 212.00,80.00" stroke-width="1"/>
<polyline points="200.00,48.00 216.00,65.00 204.00,69.00 199.00,54.00" stroke-width="1"/>
<polyline points="226.00,58.00 249.00,68.00 229.00,66.00" stroke-width="1"/>
<polyline points="94.00,194.00 113.00,183.00 117.00,163.00 97.00,162.00" stroke-width="1"/>
<polyline points="88.00,195.00 63.00,206.00 10.00,190.00 8.00,170.00 95.00,166.00" stroke-width="1"/>
<polyline points="77.00,178.00 91.00,161.00 75.00,163.00 80.00,181.00" stroke-width="1"/>
<polyline points="48.00,176.00 54.00,162.00 38.00,162.00 43.00,175.00" stroke-width="1"/>
<polyline points="55.00,207.00 39.00,190.00 51.00,186.00 56.00,201.00" stroke-width="1"/>
<polyline points="29.00,197.00 6.00,187.00 26.00,189.00" stroke-width="1"/>
</g></svg><rect width="160" height="160" fill="none" stroke="#e6e6e6"/></g>
<g transform="translate(860,244)"><svg width="160" height="160" viewBox="0 0 256 256"><rect width="256" height="256" fill="white"/>
<g fill="none" stroke="black" stroke-linecap="round" stroke-linejoin="round">
<polyline points="148.00,180.00 139.00,194.00 159.00,198.00 158.00,181.00 135.00,191.00" stroke-width="1"/>
<polyline points="137.00,188.00 137.00,188.00" stroke-width="1"/>
<polyline points="142.00,191.00 142.00,193.00" stroke-width="1"/>
<polyline points="161.00,187.00 222.00,197.00 245.00,187.00 244.00,174.00 208.00,175.00 211.00,152.00 196.00,155.00 166.00,165.00 167.00,187.00" stroke-width="1"/>
<polyline points="161.00,194.00 145.00,203.00" stroke-width="1"/>
<polyline points="180.00,107.00 194.00,116.00 198.00,96.00 181.00,97.00 191.00,120.00" stroke-width="1"/>
<polyline points="188.00,118.00 188.00,118.00" stroke-width="1"/>
<polyline points="191.00,113.00 193.00,113.00" stroke-width="1"/>
<polyline points="187.00,94.00 197.00,33.00 187.00,10.00 174.00,11.00 175.00,47.00 152.00,44.00 155.00,59.00 165.00,89.00 187.00,88.00" stroke-width="1"/>
<polyline points="194.00,94.00 203.00,110.00" stroke-width="1"/>
<polyline points="107.00,75.00 116.00,61.00 96.00,57.00 97.00,74.00 120.00,64.00" stroke-width="1"/>
<polyline points="118.00,67.00 118.00,67.00" stroke-width="1"/>
<polyline points="113.00,64.00 113.00,62.00" stroke-width="1"/>
<polyline points="94.00,68.00 33.00,58.00 10.00,68.00 11.00,81.00 47.00,80.00 44.00,103.00 59.00,100.00 89.00,90.00 88.00,68.00" stroke-width="1"/>
<polyline points="94.00,61.00 110.00,52.00" stroke-width="1"/>
<polyline points="75.00,148.00 61.00,139.00 57.00,159.00 74.00,158.00 64.00,135.00" stroke-width="1"/>
<polyline points="67.00,137.00 67.00,137.00" stroke-width="1"/>
<polyline points="64.00,142.00 62.00,142.00" stroke-width="1"/>
<polyline points="68.00,161.00 58.00,222.00 68.00,245.00 81.00,244.00 80.00,208.00 103.00,211.00 100.00,196.00 90.00,166.00 68.00,167.00" stroke-width="1"/>
<polyline points="61.00,161.00 52.00,145.00" stroke-width="1"/>
</g></svg><rect width="160" height="160" fill="none" stroke="#e6e6e6"/></g>
</svg>